<svg class="svg-icon" style="width: 1em; height: 1em;vertical-align: middle;fill: #066ac9;overflow: hidden;"
     version="1.1" viewBox="0 0 1024 1024" xmlns="http://www.w3.org/2000/svg">
  <path
    d="M255.957333 1024a32 32 0 0 1 0-64h68.906667l21.333333-128H95.957333a96.085333 96.085333 0 0 1-96-96v-640A96.085333 96.085333 0 0 1 95.957333 0h832a96.085333 96.085333 0 0 1 96 96v640a96.085333 96.085333 0 0 1-96 96h-250.24l21.333334 128h68.906666a32 32 0 0 1 0 64h-512z m378.24-64l-21.333333-128h-201.813333l-21.333334 128h244.48zM95.957333 64a32 32 0 0 0-32 32v640c0 17.664 14.336 32 32 32h832a32 32 0 0 0 32-32v-640a32 32 0 0 0-32-32h-832z"/>
  <path
    d="M512.256 640a277.76 277.76 0 0 1-181.888-72.362667 32.128 32.128 0 0 1-10.410667-23.637333V397.696L210.944 349.226667a32 32 0 0 1 0-58.453334l288-128a31.701333 31.701333 0 0 1 26.026667 0l287.701333 127.872a33.408 33.408 0 0 1 7.253333 4.437334l1.450667 1.194666a32.853333 32.853333 0 0 1 5.290667 6.058667l0.768 1.322667c1.109333 1.834667 2.005333 3.84 2.773333 6.101333l0.682667 2.261333a30.293333 30.293333 0 0 1 1.066666 8.021334v96a32 32 0 0 1-64 0V369.237333l-64 28.458667v146.304a32 32 0 0 1-10.325333 23.552A274.474667 274.474667 0 0 1 512.896 640h-0.64z m-128.298667-110.72a213.504 213.504 0 0 0 128.981334 46.72 209.493333 209.493333 0 0 0 127.018666-46.634667v-103.253333l-114.986666 51.114667a31.701333 31.701333 0 0 1-26.026667 0L383.957333 426.112v103.168z m128-116.309333L721.152 320l-209.194667-92.970667L302.762667 320l209.194666 92.970667z"/>
</svg>
